<svg xmlns="http://www.w3.org/2000/svg" xmlns:xlink="http://www.w3.org/1999/xlink" width="300" zoomAndPan="magnify" viewBox="0 0 224.87999 225" height="300" preserveAspectRatio="xMidYMid meet" version="1.2"><defs><clipPath id="b32e606794"><path d="M 0 28 L 224.761719 28 L 224.761719 184 L 0 184 Z M 0 28 "/></clipPath><clipPath id="7c2c27dd89"><path d="M 65 190 L 159 190 L 159 223.816406 L 65 223.816406 Z M 65 190 "/></clipPath><clipPath id="fc2bc94978"><path d="M 63 1.183594 L 118 1.183594 L 118 56 L 63 56 Z M 63 1.183594 "/></clipPath></defs><g id="72c98723c8"><g clip-rule="nonzero" clip-path="url(#b32e606794)"><path style=" stroke:none;fill-rule:nonzero;fill:#ffdb6e;fill-opacity:1;" d="M 219.039062 28.070312 L 186.492188 28.070312 C 189.792969 31.609375 190.03125 37.269531 186.964844 41.042969 L 186.730469 41.511719 L 211.019531 41.511719 L 211.019531 155.1875 L 13.859375 155.1875 L 13.859375 41.511719 L 57.488281 41.511719 L 55.839844 37.03125 C 54.894531 33.964844 55.367188 30.664062 57.253906 28.070312 L 5.839844 28.070312 C 2.773438 28.070312 0.417969 30.429688 0.417969 33.496094 L 0.417969 178.0625 C 0.417969 181.128906 2.773438 183.488281 5.839844 183.488281 L 219.039062 183.488281 C 222.105469 183.488281 224.464844 181.128906 224.464844 178.0625 L 224.464844 33.496094 C 224.464844 30.429688 222.105469 28.070312 219.039062 28.070312 Z M 112.441406 176.175781 C 108.667969 176.175781 105.601562 173.109375 105.601562 169.335938 C 105.601562 165.5625 108.667969 162.496094 112.441406 162.496094 C 116.214844 162.496094 119.277344 165.5625 119.277344 169.335938 C 119.277344 172.875 116.214844 176.175781 112.441406 176.175781 Z M 112.441406 176.175781 "/></g><g clip-rule="nonzero" clip-path="url(#7c2c27dd89)"><path style=" stroke:none;fill-rule:nonzero;fill:#ffdb6e;fill-opacity:1;" d="M 158.898438 216.503906 L 158.898438 221.691406 C 158.898438 222.871094 157.957031 223.816406 156.777344 223.816406 L 68.101562 223.816406 C 66.921875 223.816406 65.980469 222.871094 65.980469 221.691406 L 65.980469 216.503906 C 65.980469 215.324219 66.921875 214.382812 68.101562 214.382812 L 83.902344 214.382812 L 88.148438 190.5625 L 136.96875 190.5625 L 141.210938 214.382812 L 157.011719 214.382812 C 157.957031 214.382812 158.898438 215.324219 158.898438 216.503906 Z M 158.898438 216.503906 "/></g><path style=" stroke:none;fill-rule:nonzero;fill:#ffdb6e;fill-opacity:1;" d="M 186.730469 50.945312 L 181.070312 50.238281 C 178.945312 50.003906 177.058594 48.585938 176.117188 46.464844 C 175.410156 44.34375 175.644531 42.21875 176.824219 40.332031 L 180.363281 35.851562 C 180.832031 35.144531 180.832031 34.203125 180.125 33.496094 L 174.230469 27.597656 C 173.523438 26.890625 172.578125 26.890625 171.871094 27.363281 L 167.390625 30.898438 C 165.738281 32.316406 163.382812 32.550781 161.257812 31.609375 C 159.136719 30.898438 157.722656 29.011719 157.484375 26.890625 L 157.25 21.464844 C 157.25 20.523438 156.304688 19.816406 155.597656 19.816406 L 147.109375 19.816406 C 146.164062 19.816406 145.457031 20.523438 145.457031 21.464844 L 144.75 27.125 C 144.515625 29.25 143.097656 31.136719 140.976562 31.84375 C 138.855469 32.785156 136.730469 32.550781 134.84375 31.136719 L 130.363281 27.597656 C 129.65625 27.125 128.710938 27.125 128.003906 27.835938 L 122.109375 33.730469 C 121.402344 34.4375 121.402344 35.382812 121.875 36.089844 L 125.410156 40.570312 C 126.824219 42.21875 127.0625 44.578125 126.117188 46.699219 C 125.175781 48.824219 123.523438 50.238281 121.167969 50.472656 L 115.507812 51.183594 C 114.5625 51.183594 113.855469 52.125 113.855469 52.832031 L 113.855469 61.324219 C 113.855469 62.265625 114.5625 62.972656 115.507812 62.972656 L 121.167969 63.679688 C 123.289062 63.917969 125.175781 65.332031 126.117188 67.453125 C 127.0625 69.578125 126.589844 71.699219 125.410156 73.585938 L 121.875 77.832031 C 121.402344 78.539062 121.402344 79.484375 122.109375 80.191406 L 128.003906 86.085938 C 128.710938 86.792969 129.65625 86.792969 130.363281 86.320312 L 134.84375 82.785156 C 136.496094 81.371094 138.855469 81.132812 140.976562 82.078125 C 143.097656 82.785156 144.515625 84.671875 144.75 87.03125 L 145.457031 92.691406 C 145.457031 93.632812 146.402344 94.339844 147.109375 94.339844 L 155.597656 94.339844 C 156.542969 94.339844 157.25 93.632812 157.25 92.691406 L 157.957031 87.03125 C 158.191406 84.90625 159.609375 83.019531 161.730469 82.078125 C 163.851562 81.132812 165.976562 81.371094 167.863281 82.785156 L 172.34375 86.320312 C 173.050781 86.792969 173.992188 86.792969 174.703125 86.085938 L 180.597656 80.191406 C 181.304688 79.484375 181.304688 78.539062 180.832031 77.832031 L 177.296875 73.351562 C 175.878906 71.699219 175.644531 69.339844 176.589844 67.21875 C 177.53125 65.097656 179.183594 63.679688 181.539062 63.445312 L 187.199219 62.738281 C 188.144531 62.503906 188.851562 61.792969 188.851562 61.085938 L 188.851562 52.597656 C 188.378906 51.652344 187.671875 50.945312 186.730469 50.945312 Z M 151.117188 73.113281 C 142.15625 73.113281 134.84375 65.804688 134.84375 56.84375 C 134.84375 47.878906 142.15625 40.570312 151.117188 40.570312 C 160.078125 40.570312 167.390625 47.878906 167.390625 56.84375 C 167.390625 65.804688 160.078125 73.113281 151.117188 73.113281 Z M 151.117188 73.113281 "/><path style=" stroke:none;fill-rule:nonzero;fill:#ffdb6e;fill-opacity:1;" d="M 151.117188 47.171875 C 145.691406 47.171875 141.449219 51.417969 141.449219 56.84375 C 141.449219 62.265625 145.691406 66.511719 151.117188 66.511719 C 156.542969 66.511719 160.785156 62.265625 160.785156 56.84375 C 160.785156 51.417969 156.542969 47.171875 151.117188 47.171875 Z M 151.117188 47.171875 "/><path style=" stroke:none;fill-rule:nonzero;fill:#ffdb6e;fill-opacity:1;" d="M 122.816406 90.566406 L 117.15625 89.859375 C 115.035156 89.625 113.148438 88.207031 112.203125 86.085938 C 111.496094 83.964844 111.734375 81.839844 112.910156 79.953125 L 116.449219 75.472656 C 116.921875 74.765625 116.921875 73.824219 116.214844 73.113281 L 110.316406 67.21875 C 109.609375 66.511719 108.667969 66.511719 107.960938 66.984375 L 103.476562 70.519531 C 101.828125 71.9375 99.46875 72.171875 97.347656 71.226562 C 95.222656 70.519531 93.808594 68.632812 93.574219 66.511719 L 92.867188 60.851562 C 92.867188 59.90625 91.921875 59.199219 91.214844 59.199219 L 82.722656 59.199219 C 81.78125 59.199219 81.074219 59.90625 81.074219 60.851562 L 80.367188 66.511719 C 80.128906 68.632812 78.714844 70.519531 76.59375 71.226562 C 74.46875 72.171875 72.347656 71.9375 70.460938 70.519531 L 65.980469 66.984375 C 65.273438 66.511719 64.328125 66.511719 63.621094 67.21875 L 58.195312 73.351562 C 57.488281 74.058594 57.488281 75 57.960938 75.710938 L 61.5 80.191406 C 62.914062 81.839844 63.148438 84.199219 62.207031 86.320312 C 61.261719 88.445312 59.613281 89.859375 57.253906 90.09375 L 51.59375 90.804688 C 50.652344 90.804688 49.941406 91.746094 49.941406 92.453125 L 49.941406 100.945312 C 49.941406 101.886719 50.652344 102.59375 51.59375 102.59375 L 57.253906 103.300781 C 59.375 103.539062 61.261719 104.953125 62.207031 107.074219 C 63.148438 109.199219 62.679688 111.320312 61.5 113.207031 L 58.195312 117.453125 C 57.726562 118.160156 57.726562 119.101562 58.433594 119.8125 L 64.328125 125.707031 C 65.035156 126.414062 65.980469 126.414062 66.6875 125.941406 L 71.167969 122.40625 C 72.820312 120.988281 75.175781 120.753906 77.300781 121.699219 C 79.421875 122.40625 80.835938 124.292969 81.074219 126.648438 L 81.78125 132.308594 C 81.78125 133.253906 82.722656 133.960938 83.433594 133.960938 L 91.921875 133.960938 C 92.867188 133.960938 93.574219 133.253906 93.574219 132.308594 L 94.28125 126.648438 C 94.515625 124.527344 95.929688 122.640625 98.054688 121.699219 C 100.175781 120.753906 102.300781 120.988281 104.1875 122.40625 L 108.667969 125.941406 C 109.375 126.414062 110.316406 126.414062 111.023438 125.707031 L 116.921875 119.8125 C 117.628906 119.101562 117.628906 118.160156 117.15625 117.453125 L 113.621094 112.972656 C 112.203125 111.320312 111.96875 108.960938 112.910156 106.839844 C 113.855469 104.71875 115.507812 103.300781 117.863281 103.066406 L 123.523438 102.359375 C 124.46875 102.125 125.175781 101.414062 125.175781 100.707031 L 125.175781 92.21875 C 124.46875 91.273438 123.761719 90.566406 122.816406 90.566406 Z M 87.441406 112.734375 C 78.480469 112.734375 71.167969 105.425781 71.167969 96.464844 C 71.167969 87.5 78.480469 80.191406 87.441406 80.191406 C 96.402344 80.191406 103.714844 87.5 103.714844 96.464844 C 103.476562 105.425781 96.402344 112.734375 87.441406 112.734375 Z M 87.441406 112.734375 "/><path style=" stroke:none;fill-rule:nonzero;fill:#ffdb6e;fill-opacity:1;" d="M 87.441406 86.792969 C 82.015625 86.792969 77.773438 91.039062 77.773438 96.464844 C 77.773438 101.886719 82.015625 106.132812 87.441406 106.132812 C 92.867188 106.132812 97.109375 101.886719 97.109375 96.464844 C 97.109375 91.039062 92.867188 86.792969 87.441406 86.792969 Z M 87.441406 86.792969 "/><g clip-rule="nonzero" clip-path="url(#fc2bc94978)"><path style=" stroke:none;fill-rule:nonzero;fill:#ffdb6e;fill-opacity:1;" d="M 115.742188 35.851562 L 112.203125 33.496094 C 110.789062 32.550781 110.082031 31.136719 110.316406 29.484375 C 110.316406 27.835938 111.261719 26.417969 112.910156 25.710938 L 116.683594 23.824219 C 117.15625 23.589844 117.628906 22.882812 117.394531 22.175781 L 115.269531 16.277344 C 114.796875 16.042969 114.089844 15.570312 113.621094 15.804688 L 109.609375 16.75 C 107.960938 17.222656 106.542969 16.515625 105.363281 15.335938 C 104.1875 14.15625 103.949219 12.503906 104.421875 10.855469 L 105.835938 6.84375 C 106.074219 6.136719 105.835938 5.429688 105.128906 5.195312 L 99.46875 2.363281 C 98.996094 2.128906 98.289062 2.363281 97.816406 2.835938 L 95.460938 6.371094 C 94.515625 7.789062 93.101562 8.496094 91.449219 8.257812 C 89.800781 8.257812 88.382812 7.316406 87.675781 5.902344 L 85.789062 2.128906 C 85.554688 1.421875 84.847656 1.183594 84.140625 1.421875 L 78.242188 3.542969 C 77.535156 3.777344 77.300781 4.484375 77.300781 4.957031 L 78.242188 8.96875 C 78.480469 10.617188 78.007812 12.03125 76.828125 13.210938 C 75.648438 14.390625 74 14.628906 72.347656 14.15625 L 68.339844 12.742188 C 67.628906 12.503906 67.160156 12.742188 66.6875 13.449219 L 64.09375 18.871094 C 63.855469 19.578125 64.09375 20.050781 64.566406 20.523438 L 68.101562 22.882812 C 69.515625 23.824219 70.226562 25.238281 69.988281 26.890625 C 69.988281 28.542969 69.046875 29.957031 67.628906 30.664062 L 63.855469 32.550781 C 63.148438 32.785156 62.914062 33.496094 63.148438 34.203125 L 65.035156 40.097656 C 65.273438 40.804688 65.980469 41.042969 66.453125 41.042969 L 70.695312 40.097656 C 72.347656 39.625 73.761719 40.332031 74.941406 41.511719 C 76.121094 42.691406 76.355469 44.34375 75.886719 45.992188 L 74.46875 50.003906 C 74.234375 50.710938 74.46875 51.417969 75.175781 51.652344 L 80.835938 54.484375 C 81.308594 54.71875 82.253906 54.484375 82.488281 54.011719 L 84.847656 50.472656 C 85.789062 49.058594 87.207031 48.351562 88.855469 48.585938 C 90.507812 48.585938 91.921875 49.53125 92.628906 50.945312 L 94.515625 54.71875 C 94.753906 55.425781 95.460938 55.664062 96.167969 55.425781 L 102.0625 53.304688 C 102.769531 53.070312 103.007812 52.359375 103.007812 51.890625 L 102.0625 47.878906 C 101.589844 46.230469 102.300781 44.816406 103.476562 43.636719 C 104.65625 42.457031 106.308594 42.21875 107.960938 42.691406 L 111.96875 44.105469 C 112.675781 44.34375 113.148438 44.105469 113.621094 43.398438 L 116.214844 37.976562 C 116.449219 37.03125 116.214844 36.324219 115.742188 35.851562 Z M 85.082031 39.15625 C 79.1875 36.324219 76.828125 29.25 79.660156 23.351562 C 82.488281 17.457031 89.5625 15.097656 95.460938 17.929688 C 101.355469 20.757812 103.714844 27.835938 100.882812 33.730469 C 98.054688 39.390625 90.980469 41.984375 85.082031 39.15625 Z M 85.082031 39.15625 "/></g><path style=" stroke:none;fill-rule:nonzero;fill:#ffdb6e;fill-opacity:1;" d="M 93.574219 21.9375 C 90.035156 20.289062 85.789062 21.703125 84.140625 25.238281 C 82.488281 28.777344 83.902344 33.023438 87.441406 34.671875 C 90.980469 36.324219 95.222656 34.910156 96.875 31.371094 C 98.527344 28.070312 97.109375 23.824219 93.574219 21.9375 Z M 93.574219 21.9375 "/></g></svg>