<svg xmlns="http://www.w3.org/2000/svg" xmlns:xlink="http://www.w3.org/1999/xlink" width="300" zoomAndPan="magnify" viewBox="0 0 224.87999 225" height="300" preserveAspectRatio="xMidYMid meet" version="1.2"><defs><clipPath id="55a8f0a739"><path d="M 157 137 L 224.761719 137 L 224.761719 224.9375 L 157 224.9375 Z M 157 137 "/></clipPath><clipPath id="5cd836aa85"><path d="M 0 0.0585938 L 224.761719 0.0585938 L 224.761719 224.9375 L 0 224.9375 Z M 0 0.0585938 "/></clipPath></defs><g id="a2ea4abe02"><path style=" stroke:none;fill-rule:nonzero;fill:#ffdb6e;fill-opacity:1;" d="M 194.859375 200.273438 C 194.859375 200.742188 194.773438 201.1875 194.59375 201.617188 C 194.414062 202.050781 194.160156 202.429688 193.832031 202.757812 C 193.503906 203.085938 193.125 203.339844 192.695312 203.519531 C 192.261719 203.695312 191.816406 203.785156 191.351562 203.785156 C 190.882812 203.785156 190.4375 203.695312 190.007812 203.519531 C 189.574219 203.339844 189.195312 203.085938 188.867188 202.757812 C 188.539062 202.429688 188.285156 202.050781 188.105469 201.617188 C 187.929688 201.1875 187.839844 200.742188 187.839844 200.273438 C 187.839844 199.808594 187.929688 199.363281 188.105469 198.929688 C 188.285156 198.5 188.539062 198.121094 188.867188 197.792969 C 189.195312 197.464844 189.574219 197.210938 190.007812 197.03125 C 190.4375 196.851562 190.882812 196.765625 191.351562 196.765625 C 191.816406 196.765625 192.261719 196.851562 192.695312 197.03125 C 193.125 197.210938 193.503906 197.464844 193.832031 197.792969 C 194.160156 198.121094 194.414062 198.5 194.59375 198.929688 C 194.773438 199.363281 194.859375 199.808594 194.859375 200.273438 Z M 194.859375 200.273438 "/><g clip-rule="nonzero" clip-path="url(#55a8f0a739)"><path style=" stroke:none;fill-rule:nonzero;fill:#ffdb6e;fill-opacity:1;" d="M 217.683594 168.675781 L 210.660156 168.675781 L 210.660156 154.808594 C 210.660156 144.976562 202.234375 137.078125 191.875 137.078125 L 190.648438 137.078125 C 180.464844 137.078125 172.039062 144.976562 172.039062 154.808594 L 172.039062 168.675781 L 165.015625 168.675781 C 161.15625 168.675781 157.996094 171.835938 157.996094 175.699219 L 157.996094 217.832031 C 157.996094 221.691406 161.15625 224.851562 165.015625 224.851562 L 217.683594 224.851562 C 221.542969 224.851562 224.703125 221.691406 224.703125 217.832031 L 224.703125 175.699219 C 224.703125 171.835938 221.542969 168.675781 217.683594 168.675781 Z M 194.859375 210.105469 L 194.859375 217.832031 L 187.839844 217.832031 L 187.839844 210.105469 C 183.800781 208.703125 180.816406 204.839844 180.816406 200.273438 C 180.816406 194.480469 185.558594 189.742188 191.351562 189.742188 C 197.144531 189.742188 201.882812 194.480469 201.882812 200.273438 C 201.882812 204.839844 198.898438 208.703125 194.859375 210.105469 Z M 203.636719 168.675781 L 179.0625 168.675781 L 179.0625 154.808594 C 179.0625 148.839844 184.328125 144.097656 190.824219 144.097656 L 192.050781 144.097656 C 198.546875 144.097656 203.8125 148.839844 203.8125 154.808594 L 203.8125 168.675781 Z M 203.636719 168.675781 "/></g><g clip-rule="nonzero" clip-path="url(#5cd836aa85)"><path style=" stroke:none;fill-rule:nonzero;fill:#ffdb6e;fill-opacity:1;" d="M 112.351562 0.148438 C 50.382812 0.148438 0 50.53125 0 112.5 C 0 174.46875 50.382812 224.851562 112.351562 224.851562 C 125.871094 224.851562 138.859375 222.394531 150.972656 218.003906 C 150.972656 218.003906 150.972656 217.832031 150.972656 217.832031 L 150.972656 175.699219 C 150.972656 167.972656 157.292969 161.652344 165.015625 161.652344 L 164.667969 161.480469 L 165.015625 161.304688 L 165.015625 154.808594 C 165.015625 154.28125 165.015625 153.578125 165.191406 153.050781 L 137.808594 169.554688 C 136.753906 170.257812 136.050781 171.308594 136.050781 172.539062 L 136.050781 215.195312 C 128.503906 216.953125 120.425781 218.003906 112.351562 218.003906 C 103.574219 218.003906 94.972656 216.953125 86.898438 214.847656 L 86.898438 172.363281 C 86.898438 170.957031 86.195312 169.90625 84.964844 169.203125 L 59.863281 156.210938 L 37.917969 142.871094 L 61.441406 126.191406 L 108.839844 169.378906 L 108.839844 193.253906 C 108.839844 195.183594 110.421875 196.765625 112.351562 196.765625 C 114.285156 196.765625 115.863281 195.183594 115.863281 193.253906 L 115.863281 171.132812 L 160.980469 128.476562 L 173.09375 136.902344 C 174.496094 135.671875 175.902344 134.621094 177.480469 133.566406 C 177.480469 133.566406 177.65625 133.566406 177.65625 133.566406 C 178.183594 133.214844 178.710938 133.039062 179.0625 132.6875 C 179.0625 132.6875 179.0625 132.6875 179.238281 132.6875 L 159.925781 118.996094 C 159.398438 118.644531 158.699219 118.292969 157.820312 118.292969 L 141.492188 118.292969 C 147.285156 109.867188 152.027344 99.859375 155.539062 89.503906 L 183.097656 82.128906 C 186.960938 81.078125 188.890625 79.144531 188.714844 76.6875 C 188.542969 74.230469 186.609375 72.648438 182.574219 71.949219 L 156.941406 65.628906 C 156.765625 65.453125 156.589844 65.277344 156.414062 65.101562 L 137.28125 28.761719 C 135.347656 25.25 131.664062 23.144531 127.625 23.144531 C 125.695312 23.144531 123.585938 23.671875 121.832031 24.726562 L 117.617188 27.359375 C 115.160156 28.9375 110.070312 29.113281 107.4375 27.710938 L 101.117188 24.375 C 99.535156 23.496094 97.605469 22.96875 95.675781 22.96875 C 91.460938 22.96875 87.601562 25.25 85.492188 28.761719 L 64.777344 63.871094 L 41.957031 68.964844 C 37.214844 70.015625 35.988281 72.472656 35.988281 74.230469 C 35.988281 75.984375 36.867188 78.441406 41.429688 80.023438 L 67.9375 88.273438 C 71.097656 99.332031 75.664062 109.867188 81.28125 118.46875 L 61.617188 118.46875 C 60.914062 118.46875 60.214844 118.644531 59.511719 119.171875 L 29.492188 140.238281 C 28.613281 140.9375 27.914062 141.992188 28.089844 143.222656 C 28.089844 144.449219 28.789062 145.503906 29.84375 146.03125 L 54.421875 161.304688 L 28.089844 174.996094 C 28.089844 174.996094 27.914062 175.171875 27.914062 175.171875 C 14.746094 157.792969 7.023438 136.023438 7.023438 112.5 C 7.023438 54.394531 54.246094 7.167969 112.351562 7.167969 C 170.460938 7.167969 217.683594 54.394531 217.683594 112.5 C 217.683594 122.507812 216.277344 132.335938 213.644531 141.464844 C 214.171875 142.167969 214.523438 143.046875 215.050781 143.746094 C 215.050781 143.746094 215.050781 143.921875 215.226562 143.921875 C 215.574219 144.625 215.925781 145.503906 216.277344 146.207031 C 216.277344 146.382812 216.453125 146.382812 216.453125 146.558594 C 216.804688 147.257812 216.980469 148.136719 217.15625 148.839844 C 217.15625 149.015625 217.15625 149.015625 217.15625 149.191406 C 217.332031 150.066406 217.507812 150.945312 217.683594 152 C 222.246094 139.710938 224.878906 126.367188 224.878906 112.5 C 224.703125 50.53125 174.320312 0.148438 112.351562 0.148438 Z M 115.863281 35.257812 C 117.792969 34.90625 119.726562 34.203125 121.128906 33.328125 L 125.34375 30.695312 C 127.273438 29.464844 129.90625 30.167969 130.960938 32.097656 L 148.691406 65.804688 L 115.863281 73 Z M 91.460938 32.273438 C 92.691406 30.167969 95.5 29.464844 97.78125 30.519531 L 104.101562 33.851562 C 105.503906 34.554688 107.085938 35.082031 108.839844 35.433594 L 108.839844 73 L 72.851562 64.046875 Z M 76.1875 90.730469 L 103.046875 98.984375 C 105.503906 99.859375 108.839844 100.210938 112.175781 100.210938 C 114.285156 100.210938 117.269531 100.035156 120.078125 99.332031 L 147.285156 91.960938 C 142.371094 104.777344 135.875 115.660156 128.679688 123.207031 C 123.9375 128.125 118.144531 130.757812 112 130.757812 C 103.398438 130.757812 94.972656 125.667969 88.828125 116.890625 C 83.738281 109.691406 79.347656 100.5625 76.1875 90.730469 Z M 76.1875 90.730469 "/></g></g></svg>