<svg xmlns="http://www.w3.org/2000/svg" xmlns:xlink="http://www.w3.org/1999/xlink" width="261" zoomAndPan="magnify" viewBox="0 0 195.75 225" height="300" preserveAspectRatio="xMidYMid meet" version="1.2"><defs><clipPath id="da93b8d317"><path d="M 0 0.144531 L 194.75 0.144531 L 194.75 224.855469 L 0 224.855469 Z M 0 0.144531 "/></clipPath></defs><g id="70d24e8ef3"><path style=" stroke:none;fill-rule:nonzero;fill:#ffdb6e;fill-opacity:1;" d="M 29.945312 176.34375 L 97.324219 176.34375 L 97.324219 168.859375 L 29.945312 168.859375 L 29.945312 176.34375 "/><path style=" stroke:none;fill-rule:nonzero;fill:#ffdb6e;fill-opacity:1;" d="M 59.890625 153.886719 L 29.945312 153.886719 L 29.945312 161.371094 L 59.890625 161.371094 L 59.890625 153.886719 "/><path style=" stroke:none;fill-rule:nonzero;fill:#ffdb6e;fill-opacity:1;" d="M 67.378906 161.371094 L 86.09375 161.371094 L 86.09375 153.886719 L 67.378906 153.886719 L 67.378906 161.371094 "/><path style=" stroke:none;fill-rule:nonzero;fill:#ffdb6e;fill-opacity:1;" d="M 93.578125 161.371094 L 134.753906 161.371094 L 134.753906 153.886719 L 93.578125 153.886719 L 93.578125 161.371094 "/><path style=" stroke:none;fill-rule:nonzero;fill:#ffdb6e;fill-opacity:1;" d="M 104.808594 176.34375 L 142.242188 176.34375 L 142.242188 168.859375 L 104.808594 168.859375 L 104.808594 176.34375 "/><path style=" stroke:none;fill-rule:nonzero;fill:#ffdb6e;fill-opacity:1;" d="M 134.753906 15.386719 L 127.269531 15.386719 L 127.269531 22.875 L 134.753906 22.875 L 134.753906 15.386719 "/><path style=" stroke:none;fill-rule:nonzero;fill:#ffdb6e;fill-opacity:1;" d="M 149.726562 15.386719 L 142.242188 15.386719 L 142.242188 22.875 L 149.726562 22.875 L 149.726562 15.386719 "/><path style=" stroke:none;fill-rule:nonzero;fill:#ffdb6e;fill-opacity:1;" d="M 104.808594 123.941406 C 88.300781 123.941406 74.863281 110.503906 74.863281 93.996094 C 74.863281 77.488281 88.300781 64.050781 104.808594 64.050781 C 121.316406 64.050781 134.753906 77.488281 134.753906 93.996094 C 134.753906 110.503906 121.316406 123.941406 104.808594 123.941406 Z M 104.808594 56.5625 C 84.164062 56.5625 67.378906 73.347656 67.378906 93.996094 C 67.378906 114.640625 84.164062 131.425781 104.808594 131.425781 C 125.457031 131.425781 142.242188 114.640625 142.242188 93.996094 C 142.242188 73.347656 125.457031 56.5625 104.808594 56.5625 "/><path style=" stroke:none;fill-rule:nonzero;fill:#ffdb6e;fill-opacity:1;" d="M 104.808594 71.535156 L 104.808594 79.023438 C 112.003906 79.023438 118.480469 84.167969 119.855469 90.996094 L 127.195312 89.503906 C 125.074219 79.09375 115.671875 71.535156 104.808594 71.535156 "/><g clip-rule="nonzero" clip-path="url(#da93b8d317)"><path style=" stroke:none;fill-rule:nonzero;fill:#ffdb6e;fill-opacity:1;" d="M 174.378906 157.628906 L 168.445312 163.566406 L 138.746094 133.855469 C 140.882812 132.039062 142.855469 130.050781 144.683594 127.917969 Z M 185.609375 168.859375 L 179.671875 174.796875 L 173.738281 168.859375 L 179.671875 162.921875 Z M 104.808594 138.914062 C 80.039062 138.914062 59.890625 118.765625 59.890625 93.996094 C 59.890625 69.226562 80.039062 49.078125 104.808594 49.078125 C 129.578125 49.078125 149.726562 69.226562 149.726562 93.996094 C 149.726562 118.765625 129.578125 138.914062 104.808594 138.914062 Z M 157.214844 202.546875 L 22.460938 202.546875 L 22.460938 37.847656 L 48.660156 37.847656 C 50.722656 37.847656 52.40625 36.164062 52.40625 34.105469 L 52.40625 7.902344 L 157.214844 7.902344 L 157.214844 129.875 L 149.144531 121.804688 C 154.230469 113.734375 157.214844 104.214844 157.214844 93.996094 C 157.214844 65.101562 133.703125 41.589844 104.808594 41.589844 C 75.917969 41.589844 52.40625 65.101562 52.40625 93.996094 C 52.40625 122.886719 75.917969 146.398438 104.808594 146.398438 C 115.03125 146.398438 124.550781 143.417969 132.621094 138.328125 L 157.214844 162.921875 Z M 149.726562 217.519531 L 7.488281 217.519531 L 7.488281 15.386719 L 32.140625 15.386719 L 16.070312 31.457031 C 15.398438 32.128906 14.972656 33.066406 14.972656 34.105469 L 14.972656 206.289062 C 14.972656 208.351562 16.652344 210.035156 18.714844 210.035156 L 149.726562 210.035156 Z M 44.917969 13.195312 L 44.917969 30.359375 L 27.753906 30.359375 Z M 160.957031 0.414062 L 48.660156 0.414062 C 47.625 0.414062 46.6875 0.839844 46.015625 1.511719 L 39.625 7.902344 L 0 7.902344 L 0 225.007812 L 157.214844 225.007812 L 157.214844 210.035156 L 160.957031 210.035156 C 163.019531 210.035156 164.699219 208.351562 164.699219 206.289062 L 164.699219 170.410156 L 177.027344 182.734375 C 177.757812 183.464844 178.707031 183.832031 179.671875 183.832031 C 180.636719 183.832031 181.589844 183.464844 182.320312 182.734375 L 193.550781 171.503906 C 195.011719 170.042969 195.011719 167.675781 193.550781 166.210938 L 164.699219 137.363281 L 164.699219 4.15625 C 164.699219 2.097656 163.019531 0.414062 160.957031 0.414062 "/></g><path style=" stroke:none;fill-rule:nonzero;fill:#ffdb6e;fill-opacity:1;" d="M 67.378906 138.914062 L 29.945312 138.914062 L 29.945312 146.398438 L 67.378906 146.398438 L 67.378906 138.914062 "/><path style=" stroke:none;fill-rule:nonzero;fill:#ffdb6e;fill-opacity:1;" d="M 52.40625 123.941406 L 29.945312 123.941406 L 29.945312 131.425781 L 52.40625 131.425781 L 52.40625 123.941406 "/><path style=" stroke:none;fill-rule:nonzero;fill:#ffdb6e;fill-opacity:1;" d="M 48.660156 108.96875 L 29.945312 108.96875 L 29.945312 116.453125 L 48.660156 116.453125 L 48.660156 108.96875 "/><path style=" stroke:none;fill-rule:nonzero;fill:#ffdb6e;fill-opacity:1;" d="M 44.917969 93.996094 L 29.945312 93.996094 L 29.945312 101.480469 L 44.917969 101.480469 L 44.917969 93.996094 "/><path style=" stroke:none;fill-rule:nonzero;fill:#ffdb6e;fill-opacity:1;" d="M 48.660156 79.023438 L 29.945312 79.023438 L 29.945312 86.507812 L 48.660156 86.507812 L 48.660156 79.023438 "/><path style=" stroke:none;fill-rule:nonzero;fill:#ffdb6e;fill-opacity:1;" d="M 52.40625 64.050781 L 29.945312 64.050781 L 29.945312 71.535156 L 52.40625 71.535156 L 52.40625 64.050781 "/><path style=" stroke:none;fill-rule:nonzero;fill:#ffdb6e;fill-opacity:1;" d="M 63.632812 49.078125 L 29.945312 49.078125 L 29.945312 56.5625 L 63.632812 56.5625 L 63.632812 49.078125 "/><path style=" stroke:none;fill-rule:nonzero;fill:#ffdb6e;fill-opacity:1;" d="M 119.78125 105.222656 L 127.269531 105.222656 L 127.269531 97.738281 L 119.78125 97.738281 L 119.78125 105.222656 "/></g></svg>