<svg xmlns="http://www.w3.org/2000/svg" xmlns:xlink="http://www.w3.org/1999/xlink" width="240" zoomAndPan="magnify" viewBox="0 0 180 165.000002" height="220" preserveAspectRatio="xMidYMid meet" version="1.2"><defs><clipPath id="6b405c7250"><path d="M 0.542969 0 L 179.457031 0 L 179.457031 164.007812 L 0.542969 164.007812 Z M 0.542969 0 "/></clipPath><clipPath id="f7641b1f4c"><path d="M -32.523438 84.671875 L 79.683594 -32.890625 L 197.246094 79.320312 L 85.039062 196.878906 Z M -32.523438 84.671875 "/></clipPath><clipPath id="2e4b464e8f"><path d="M 0.542969 0 L 179 0 L 179 164 L 0.542969 164 Z M 0.542969 0 "/></clipPath><clipPath id="056492cc95"><path d="M -32.523438 84.671875 L 79.683594 -32.890625 L 197.246094 79.320312 L 85.039062 196.878906 Z M -32.523438 84.671875 "/></clipPath><clipPath id="19b101edbb"><path d="M 84.878906 196.726562 L 197.085938 79.167969 L 79.523438 -33.042969 L -32.683594 84.519531 Z M 84.878906 196.726562 "/></clipPath><clipPath id="c27f6dabb6"><path d="M 84.878906 196.726562 L 197.085938 79.167969 L 79.523438 -33.042969 L -32.683594 84.519531 Z M 84.878906 196.726562 "/></clipPath><clipPath id="ce71e18508"><path d="M 26.097656 140.625 C 58.5625 171.609375 109.996094 170.410156 140.980469 137.945312 L 166.757812 110.9375 C 183.507812 93.390625 182.859375 65.589844 165.3125 48.839844 L 138.304688 23.0625 C 105.84375 -7.921875 54.40625 -6.722656 23.421875 25.738281 C -7.5625 58.203125 -6.367188 109.636719 26.097656 140.625 Z M 26.097656 140.625 "/></clipPath><linearGradient x1="-39.340781" gradientTransform="matrix(0.606528,-0.635465,-0.635465,-0.606528,84.877982,196.727093)" y1="92" x2="236.33593" gradientUnits="userSpaceOnUse" y2="92" id="1222b13462"><stop style="stop-color:#ffdb6e;stop-opacity:1;" offset="0"/><stop style="stop-color:#ffdb6e;stop-opacity:1;" offset="0.125"/><stop style="stop-color:#ffdb6e;stop-opacity:1;" offset="0.15625"/><stop style="stop-color:#ffda6d;stop-opacity:1;" offset="0.171875"/><stop style="stop-color:#ffd96d;stop-opacity:1;" offset="0.1875"/><stop style="stop-color:#ffd96d;stop-opacity:1;" offset="0.203125"/><stop style="stop-color:#ffd86c;stop-opacity:1;" offset="0.21875"/><stop style="stop-color:#ffd76c;stop-opacity:1;" offset="0.234375"/><stop style="stop-color:#ffd66c;stop-opacity:1;" offset="0.25"/><stop style="stop-color:#ffd66b;stop-opacity:1;" offset="0.265625"/><stop style="stop-color:#ffd56b;stop-opacity:1;" offset="0.28125"/><stop style="stop-color:#ffd46b;stop-opacity:1;" offset="0.296875"/><stop style="stop-color:#ffd46a;stop-opacity:1;" offset="0.3125"/><stop style="stop-color:#ffd36a;stop-opacity:1;" offset="0.328125"/><stop style="stop-color:#ffd269;stop-opacity:1;" offset="0.34375"/><stop style="stop-color:#ffd169;stop-opacity:1;" offset="0.359375"/><stop style="stop-color:#ffd169;stop-opacity:1;" offset="0.375"/><stop style="stop-color:#ffd068;stop-opacity:1;" offset="0.390625"/><stop style="stop-color:#ffcf68;stop-opacity:1;" offset="0.40625"/><stop style="stop-color:#ffce68;stop-opacity:1;" offset="0.421875"/><stop style="stop-color:#ffce67;stop-opacity:1;" offset="0.4375"/><stop style="stop-color:#ffcd67;stop-opacity:1;" offset="0.453125"/><stop style="stop-color:#ffcc66;stop-opacity:1;" offset="0.46875"/><stop style="stop-color:#ffcc66;stop-opacity:1;" offset="0.484375"/><stop style="stop-color:#ffcb66;stop-opacity:1;" offset="0.5"/><stop style="stop-color:#ffca65;stop-opacity:1;" offset="0.515625"/><stop style="stop-color:#ffc965;stop-opacity:1;" offset="0.53125"/><stop style="stop-color:#ffc965;stop-opacity:1;" offset="0.546875"/><stop style="stop-color:#ffc864;stop-opacity:1;" offset="0.5625"/><stop style="stop-color:#ffc764;stop-opacity:1;" offset="0.578125"/><stop style="stop-color:#ffc763;stop-opacity:1;" offset="0.59375"/><stop style="stop-color:#ffc663;stop-opacity:1;" offset="0.609375"/><stop style="stop-color:#ffc563;stop-opacity:1;" offset="0.625"/><stop style="stop-color:#ffc462;stop-opacity:1;" offset="0.640625"/><stop style="stop-color:#ffc462;stop-opacity:1;" offset="0.65625"/><stop style="stop-color:#ffc362;stop-opacity:1;" offset="0.671875"/><stop style="stop-color:#ffc261;stop-opacity:1;" offset="0.6875"/><stop style="stop-color:#ffc161;stop-opacity:1;" offset="0.703125"/><stop style="stop-color:#ffc160;stop-opacity:1;" offset="0.71875"/><stop style="stop-color:#ffc060;stop-opacity:1;" offset="0.734375"/><stop style="stop-color:#ffbf60;stop-opacity:1;" offset="0.75"/><stop style="stop-color:#ffbf5f;stop-opacity:1;" offset="0.765625"/><stop style="stop-color:#ffbe5f;stop-opacity:1;" offset="0.78125"/><stop style="stop-color:#ffbd5f;stop-opacity:1;" offset="0.796875"/><stop style="stop-color:#ffbc5e;stop-opacity:1;" offset="0.8125"/><stop style="stop-color:#ffbc5e;stop-opacity:1;" offset="0.875"/><stop style="stop-color:#ffbc5e;stop-opacity:1;" offset="1"/></linearGradient><clipPath id="fb41749e9e"><path d="M 31 39 L 134 39 L 134 109 L 31 109 Z M 31 39 "/></clipPath><clipPath id="566b927e2b"><path d="M -32.523438 84.671875 L 79.683594 -32.890625 L 197.246094 79.320312 L 85.039062 196.878906 Z M -32.523438 84.671875 "/></clipPath><clipPath id="b953fa4ebb"><path d="M 84.878906 196.726562 L 197.085938 79.167969 L 79.523438 -33.042969 L -32.683594 84.519531 Z M 84.878906 196.726562 "/></clipPath><clipPath id="4b454bf725"><path d="M 84.878906 196.726562 L 197.085938 79.167969 L 79.523438 -33.042969 L -32.683594 84.519531 Z M 84.878906 196.726562 "/></clipPath><clipPath id="8949691401"><rect x="0" width="180" y="0" height="165"/></clipPath></defs><g id="c5953fd5b3"><g clip-rule="nonzero" clip-path="url(#6b405c7250)"><g clip-rule="nonzero" clip-path="url(#f7641b1f4c)"><g transform="matrix(1,0,0,1,0.000000000000000111,0.000000000000012869)"><g clip-path="url(#8949691401)"><g clip-rule="nonzero" clip-path="url(#2e4b464e8f)"><g clip-rule="nonzero" clip-path="url(#056492cc95)"><g clip-rule="nonzero" clip-path="url(#19b101edbb)"><g clip-rule="nonzero" clip-path="url(#c27f6dabb6)"><g clip-rule="nonzero" clip-path="url(#ce71e18508)"><path style=" stroke:none;fill-rule:nonzero;fill:url(#1222b13462);" d="M 94.167969 253.367188 L -81.371094 85.820312 L 85.832031 -89.359375 L 261.371094 78.183594 Z M 94.167969 253.367188 "/></g></g></g></g></g><g clip-rule="nonzero" clip-path="url(#fb41749e9e)"><g clip-rule="nonzero" clip-path="url(#566b927e2b)"><g clip-rule="nonzero" clip-path="url(#b953fa4ebb)"><g clip-rule="nonzero" clip-path="url(#4b454bf725)"><path style=" stroke:none;fill-rule:nonzero;fill:#000000;fill-opacity:0.86;" d="M 111.890625 56.007812 C 111.890625 56.007812 111.84375 55.90625 111.75 55.703125 L 111.574219 55.535156 C 111.453125 55.417969 111.335938 55.304688 111.214844 55.191406 C 111.097656 55.078125 111.007812 55.050781 110.949219 55.109375 L 110.78125 55.289062 C 110.722656 55.234375 110.632812 55.207031 110.515625 55.207031 C 110.402344 55.328125 110.199219 55.332031 109.90625 55.222656 C 109.640625 55.082031 109.285156 54.917969 108.84375 54.722656 C 108.085938 54.566406 107.144531 54.210938 106.023438 53.652344 C 104.933594 53.125 103.625 52.558594 102.097656 51.953125 C 99.066406 50.714844 95.359375 49.082031 90.972656 47.058594 C 90.382812 46.722656 89.824219 46.472656 89.296875 46.308594 C 88.796875 46.117188 88.234375 45.839844 87.617188 45.476562 C 87.03125 45.371094 86.429688 45.167969 85.808594 44.863281 C 85.222656 44.585938 84.574219 44.28125 83.867188 43.945312 C 83.394531 43.722656 82.808594 43.503906 82.105469 43.289062 C 81.457031 43.070312 80.765625 42.78125 80.03125 42.417969 C 79.445312 42.316406 78.828125 42.125 78.183594 41.851562 C 77.566406 41.601562 76.859375 41.355469 76.070312 41.113281 L 74.175781 40.503906 C 73.765625 40.335938 73.339844 40.246094 72.902344 40.226562 C 72.464844 40.207031 72.085938 40.15625 71.761719 40.078125 C 71.53125 40.082031 71.296875 40.089844 71.0625 40.09375 C 70.859375 40.070312 70.640625 40.0625 70.40625 40.066406 L 69.878906 39.902344 L 69.625 40.171875 C 69.566406 40.113281 69.476562 40.085938 69.359375 40.089844 L 69.1875 40.269531 C 69.132812 40.328125 68.984375 40.246094 68.746094 40.015625 L 68.578125 40.195312 L 68.320312 40.464844 L 68.191406 40.597656 L 68.023438 40.777344 L 67.765625 41.046875 L 67.679688 41.132812 L 67.425781 41.402344 C 67.3125 41.523438 67.3125 41.636719 67.433594 41.75 C 67.550781 41.867188 67.582031 41.953125 67.527344 42.011719 C 67.414062 42.128906 67.355469 42.25 67.359375 42.363281 C 67.363281 42.480469 67.308594 42.601562 67.195312 42.71875 L 67.617188 44.0625 C 67.738281 44.175781 67.796875 44.261719 67.796875 44.320312 C 67.800781 44.378906 67.847656 44.566406 67.941406 44.886719 C 68.0625 45 68.167969 45.128906 68.257812 45.269531 C 68.347656 45.414062 68.453125 45.542969 68.574219 45.65625 C 68.457031 45.777344 68.519531 45.949219 68.757812 46.175781 L 68.9375 46.347656 C 68.882812 46.40625 68.910156 46.492188 69.03125 46.609375 L 69.210938 46.777344 C 69.507812 47.0625 69.6875 47.234375 69.746094 47.289062 C 69.777344 47.316406 69.792969 47.449219 69.800781 47.683594 L 70.15625 48.023438 L 70.335938 48.191406 L 72.347656 50.113281 L 73.464844 51.179688 C 73.933594 51.402344 74.378906 51.710938 74.796875 52.109375 C 75.242188 52.535156 75.671875 52.890625 76.085938 53.171875 C 76.945312 53.761719 77.714844 54.355469 78.398438 54.953125 C 79.113281 55.574219 79.882812 56.167969 80.714844 56.734375 C 83.683594 59.109375 86.792969 61.367188 90.046875 63.503906 C 91.558594 64.722656 93.101562 65.910156 94.671875 67.066406 C 96.242188 68.226562 97.839844 69.351562 99.46875 70.449219 C 100.984375 71.667969 102.554688 72.882812 104.183594 74.097656 C 105.84375 75.28125 107.429688 76.484375 108.945312 77.699219 C 110.515625 78.972656 112.046875 80.234375 113.53125 81.480469 C 115.046875 82.757812 116.59375 84.148438 118.171875 85.65625 C 119.574219 86.992188 120.871094 88.316406 122.066406 89.628906 C 123.261719 90.9375 124.234375 92.125 124.988281 93.183594 C 125.410156 93.816406 125.773438 94.417969 126.078125 94.996094 C 126.414062 95.597656 126.632812 96.203125 126.734375 96.8125 C 126.925781 97.683594 126.96875 98.746094 126.851562 100 L 126.296875 100.582031 C 126.414062 100.695312 126.460938 100.765625 126.433594 100.796875 C 126.402344 100.828125 126.417969 100.871094 126.480469 100.925781 L 126.570312 101.011719 L 126.3125 101.28125 L 125.800781 101.816406 L 125.246094 102.398438 L 124.734375 102.933594 L 124.050781 103.648438 C 123.996094 103.707031 123.863281 103.726562 123.660156 103.699219 C 123.457031 103.675781 123.296875 103.722656 123.183594 103.84375 C 123.011719 104.023438 122.769531 104.160156 122.449219 104.253906 L 121.9375 104.789062 C 121.703125 104.679688 121.527344 104.652344 121.410156 104.714844 C 121.296875 104.773438 121.125 104.808594 120.890625 104.8125 C 120.664062 105.050781 120.359375 105.132812 119.976562 105.054688 C 119.921875 105.113281 119.820312 105.160156 119.675781 105.191406 C 119.53125 105.222656 119.402344 105.300781 119.289062 105.417969 C 118.9375 105.425781 118.617188 105.433594 118.328125 105.441406 C 118.066406 105.476562 117.730469 105.527344 117.328125 105.597656 C 117.035156 105.660156 116.703125 105.683594 116.324219 105.664062 C 115.972656 105.613281 115.578125 105.609375 115.144531 105.648438 C 113.804688 105.679688 112.449219 105.695312 111.082031 105.699219 C 109.742188 105.671875 108.324219 105.515625 106.832031 105.230469 C 105.316406 105.089844 103.78125 104.820312 102.226562 104.417969 C 100.730469 104.015625 99.207031 103.585938 97.652344 103.128906 C 96.21875 102.78125 94.707031 102.394531 93.125 101.964844 C 91.601562 101.535156 90.046875 101.105469 88.464844 100.675781 C 87.085938 100.273438 85.648438 99.839844 84.152344 99.378906 C 82.714844 98.917969 81.308594 98.542969 79.933594 98.253906 C 78.4375 97.734375 77.027344 97.300781 75.710938 96.953125 C 74.449219 96.605469 73.113281 96.242188 71.707031 95.867188 C 70.390625 95.519531 69.085938 95.214844 67.796875 94.953125 C 66.570312 94.691406 65.355469 94.445312 64.15625 94.210938 C 61.515625 93.457031 59.171875 92.867188 57.125 92.453125 C 56.597656 92.40625 56.058594 92.285156 55.5 92.09375 C 54.972656 91.933594 54.445312 91.828125 53.917969 91.78125 C 53.449219 91.5625 52.949219 91.398438 52.421875 91.292969 C 51.953125 91.1875 51.367188 91.027344 50.664062 90.808594 C 48.730469 90.390625 46.945312 89.992188 45.304688 89.625 C 43.667969 89.253906 42.132812 88.984375 40.699219 88.816406 C 39.144531 88.355469 37.855469 88.007812 36.832031 87.769531 C 35.808594 87.589844 34.902344 87.40625 34.109375 87.21875 C 33.585938 87.175781 33.21875 87.140625 33.015625 87.113281 C 32.78125 87.121094 32.519531 87.097656 32.226562 87.046875 L 31.878906 87.054688 C 31.289062 86.71875 31.175781 86.835938 31.535156 87.410156 L 32.074219 87.921875 L 32.164062 88.007812 C 32.222656 88.066406 32.296875 88.105469 32.382812 88.132812 C 32.472656 88.160156 32.574219 88.230469 32.695312 88.34375 C 32.8125 88.34375 33.53125 88.691406 34.859375 89.386719 C 35.625 89.660156 36.609375 90.089844 37.816406 90.671875 C 38.996094 91.285156 40.425781 91.996094 42.105469 92.800781 C 43.605469 93.4375 45.265625 94.140625 47.089844 94.914062 C 48.941406 95.65625 50.898438 96.410156 52.953125 97.179688 C 53.542969 97.515625 54.117188 97.75 54.671875 97.882812 C 55.257812 98.042969 55.863281 98.304688 56.484375 98.667969 L 58.109375 99.113281 C 58.464844 99.335938 58.742188 99.460938 58.949219 99.484375 C 59.183594 99.539062 59.503906 99.648438 59.917969 99.8125 C 62.125 100.78125 64.542969 101.523438 67.175781 102.046875 C 68.617188 102.625 69.957031 103.132812 71.1875 103.570312 C 72.449219 103.976562 73.769531 104.355469 75.148438 104.699219 C 76.464844 105.046875 77.828125 105.378906 79.234375 105.699219 C 80.695312 106.011719 82.117188 106.316406 83.492188 106.601562 C 84.925781 106.949219 86.332031 107.207031 87.703125 107.378906 C 89.105469 107.578125 90.550781 107.761719 92.042969 107.933594 C 93.355469 108.046875 94.710938 108.148438 96.113281 108.230469 C 97.542969 108.34375 98.984375 108.46875 100.445312 108.609375 C 101.785156 108.578125 103.152344 108.578125 104.550781 108.601562 C 106.007812 108.625 107.40625 108.652344 108.746094 108.679688 C 110.265625 108.820312 111.679688 108.859375 112.988281 108.800781 C 114.355469 108.738281 115.765625 108.691406 117.222656 108.65625 C 118.742188 108.796875 120.167969 108.792969 121.503906 108.644531 C 122.839844 108.496094 124.203125 108.261719 125.59375 107.9375 C 125.652344 107.878906 125.78125 107.859375 125.984375 107.882812 C 126.191406 107.910156 126.347656 107.863281 126.464844 107.742188 C 126.578125 107.625 126.707031 107.546875 126.851562 107.515625 C 127.023438 107.453125 127.167969 107.363281 127.28125 107.242188 C 127.632812 107.351562 127.921875 107.285156 128.152344 107.046875 C 128.441406 106.984375 128.726562 106.800781 129.011719 106.503906 C 129.421875 106.550781 129.769531 106.457031 130.054688 106.21875 L 130.914062 105.671875 L 131 105.582031 L 131.171875 105.40625 L 131.425781 105.136719 L 132.238281 104.289062 C 132.636719 103.871094 132.925781 103.296875 133.113281 102.5625 C 133.359375 101.828125 133.53125 101.054688 133.628906 100.234375 C 133.488281 99.308594 133.230469 98.234375 132.855469 97.023438 C 132.667969 96.5 132.449219 95.925781 132.203125 95.289062 C 131.984375 94.683594 131.765625 94.132812 131.550781 93.644531 C 131.1875 93.070312 130.855469 92.523438 130.554688 92.007812 C 130.277344 91.519531 129.886719 90.972656 129.378906 90.375 C 129.015625 89.800781 128.683594 89.285156 128.382812 88.824219 C 128.109375 88.394531 127.761719 87.921875 127.34375 87.40625 C 126.535156 86.40625 125.695312 85.40625 124.828125 84.40625 C 123.988281 83.4375 123.136719 82.539062 122.273438 81.714844 C 121.40625 80.773438 120.558594 79.90625 119.722656 79.109375 C 118.917969 78.34375 118.085938 77.546875 117.222656 76.722656 C 116.300781 75.957031 115.453125 75.203125 114.679688 74.464844 C 113.90625 73.726562 113.027344 73.003906 112.050781 72.296875 C 110.355469 70.792969 108.632812 69.320312 106.878906 67.875 C 105.15625 66.460938 103.449219 65.058594 101.757812 63.667969 C 100.183594 62.394531 98.539062 61.136719 96.820312 59.898438 C 95.132812 58.683594 93.515625 57.484375 91.976562 56.296875 C 90.582031 55.308594 89.265625 54.363281 88.019531 53.460938 C 86.777344 52.558594 85.5625 51.652344 84.375 50.75 C 85.085938 51.199219 85.699219 51.386719 86.222656 51.316406 C 87.484375 51.726562 88.628906 52.078125 89.65625 52.375 C 90.738281 52.667969 91.835938 52.921875 92.949219 53.128906 C 94.882812 53.664062 96.714844 54.132812 98.441406 54.527344 C 100.199219 54.953125 101.78125 55.296875 103.183594 55.554688 C 104.738281 56.011719 106.042969 56.316406 107.09375 56.46875 C 108.203125 56.617188 109.167969 56.738281 109.988281 56.835938 C 110.277344 56.773438 110.550781 56.722656 110.8125 56.6875 C 111.105469 56.679688 111.304688 56.617188 111.421875 56.496094 L 111.632812 56.273438 L 111.71875 56.183594 Z M 76.695312 49.226562 L 76.523438 49.402344 Z M 76.523438 49.402344 L 76.4375 49.492188 Z M 76.523438 49.402344 "/></g></g></g></g></g></g></g></g></g></svg>